<?xml version="1.0" encoding="UTF-8"?>
<svg id="Layer_1" data-name="Layer 1" xmlns="http://www.w3.org/2000/svg" viewBox="0 0 275 120"><defs><style>.cls-1{fill:#fff;}</style></defs><title>yanshee_logo-01_white-01</title><path class="cls-1" d="M70.56,69.29H49.35V66.07H70.56ZM79.1,57a6.44,6.44,0,0,0-6.44-6.44H43.76c0,.62-.06,6.64-.06,6.64h28v3.18c-.11,0-12.33.07-21.24.07A8.48,8.48,0,0,0,42,68.89v6.78H79.1Z"/><path class="cls-1" d="M32,50.55v7.16H9.93V50.55H2.14V63.84a2.21,2.21,0,0,0,2.2,2.22H17V75.6h7.93V66.06H37.6a2.21,2.21,0,0,0,2.21-2.21h0V50.55Z"/><path class="cls-1" d="M82.53,50.62h32.86a2.5,2.5,0,0,1,2.5,2.5V75.67h-7.37V57.08H89.82V75.67H82.53s-.07-25.05,0-25.05"/><path class="cls-1" d="M161.33,38.93h7.44V50.62h25.38a2.5,2.5,0,0,1,2.5,2.5V75.67h-7.37V57.08h-20.7V75.67h-7.29s-.06-20.14,0-24.3V38.93"/><path class="cls-1" d="M128.62,59.77H152a6.44,6.44,0,0,1,6.44,6.44h0v9.46H121V69.59h30V66.41H127.44a6.6,6.6,0,0,1-6.58-6.58h0V50.41h37.37v6.18H128.61v3.18"/><path class="cls-1" d="M206.73,56.63h21.2v3.23h-21.2Zm28,9.43V57.53a7,7,0,0,0-7-7H199.9V75.61h34.73V69.5H207.06V66.06Z"/><path class="cls-1" d="M245.17,56.63h21.21v3.23H245.17Zm28,9.43V57.53a7,7,0,0,0-7-7H238.35V75.61h34.74V69.5H245.5V66.06Z"/><path class="cls-1" d="M70.56,69.29H49.35V66.07H70.56ZM79.1,57a6.44,6.44,0,0,0-6.44-6.44H43.76c0,.62-.06,6.64-.06,6.64h28v3.18c-.11,0-12.33.07-21.24.07A8.48,8.48,0,0,0,42,68.89v6.78H79.1Z"/></svg>